solid exported 
facet normal 1 0 0 
outer loop 
vertex 5 5 5 
vertex 5 -5 5 
vertex 5 5 -5 
endloop 
endfacet 
facet normal 1 0 0 
outer loop 
vertex 5 -5 5 
vertex 5 -5 -5 
vertex 5 5 -5 
endloop 
endfacet 
facet normal -1 0 0 
outer loop 
vertex -5 5 -5 
vertex -5 -5 -5 
vertex -5 5 5 
endloop 
endfacet 
facet normal -1 0 0 
outer loop 
vertex -5 -5 -5 
vertex -5 -5 5 
vertex -5 5 5 
endloop 
endfacet 
facet normal 0 1 0 
outer loop 
vertex -5 5 -5 
vertex -5 5 5 
vertex 5 5 -5 
endloop 
endfacet 
facet normal 0 1 0 
outer loop 
vertex -5 5 5 
vertex 5 5 5 
vertex 5 5 -5 
endloop 
endfacet 
facet normal 0 -1 0 
outer loop 
vertex -5 -5 5 
vertex -5 -5 -5 
vertex 5 -5 5 
endloop 
endfacet 
facet normal 0 -1 0 
outer loop 
vertex -5 -5 -5 
vertex 5 -5 -5 
vertex 5 -5 5 
endloop 
endfacet 
facet normal 0 0 1 
outer loop 
vertex -5 5 5 
vertex -5 -5 5 
vertex 5 5 5 
endloop 
endfacet 
facet normal 0 0 1 
outer loop 
vertex -5 -5 5 
vertex 5 -5 5 
vertex 5 5 5 
endloop 
endfacet 
facet normal 0 0 -1 
outer loop 
vertex 5 5 -5 
vertex 5 -5 -5 
vertex -5 5 -5 
endloop 
endfacet 
facet normal 0 0 -1 
outer loop 
vertex 5 -5 -5 
vertex -5 -5 -5 
vertex -5 5 -5 
endloop 
endfacet 
facet normal 0.13052632789924845 -1.2141697541372568e-16 -0.9914448435112958 
outer loop 
vertex 0 -5.000000000000001 -10 
vertex 0 4.999999999999999 -10 
vertex 2.5881905555725098 -5.000000000000001 -9.659257888793945 
endloop 
endfacet 
facet normal 0.13052632789924845 -1.2141697541372568e-16 -0.9914448435112958 
outer loop 
vertex 0 4.999999999999999 -10 
vertex 2.5881905555725098 4.999999999999999 -9.659257888793945 
vertex 2.5881905555725098 -5.000000000000001 -9.659257888793945 
endloop 
endfacet 
facet normal 0.3826831801425482 -1.1314262402313976e-16 -0.9238796369852439 
outer loop 
vertex 2.5881905555725098 -5.000000000000001 -9.659257888793945 
vertex 2.5881905555725098 4.999999999999999 -9.659257888793945 
vertex 5 -5.000000000000001 -8.66025447845459 
endloop 
endfacet 
facet normal 0.3826831801425482 -1.1314262402313976e-16 -0.9238796369852439 
outer loop 
vertex 2.5881905555725098 4.999999999999999 -9.659257888793945 
vertex 5 4.999999999999999 -8.66025447845459 
vertex 5 -5.000000000000001 -8.66025447845459 
endloop 
endfacet 
facet normal 0.608761536011819 -9.715775282292107e-17 -0.7933532581848586 
outer loop 
vertex 5 -5.000000000000001 -8.66025447845459 
vertex 5 4.999999999999999 -8.66025447845459 
vertex 7.071067810058594 -5.000000000000001 -7.071067810058593 
endloop 
endfacet 
facet normal 0.608761536011819 -9.715775282292107e-17 -0.7933532581848586 
outer loop 
vertex 5 4.999999999999999 -8.66025447845459 
vertex 7.071067810058594 4.999999999999999 -7.071067810058595 
vertex 7.071067810058594 -5.000000000000001 -7.071067810058593 
endloop 
endfacet 
facet normal 0.7933532581848586 -7.455178665209004e-17 -0.608761536011819 
outer loop 
vertex 7.071067810058594 -5.000000000000001 -7.071067810058593 
vertex 7.071067810058594 4.999999999999999 -7.071067810058595 
vertex 8.66025447845459 -5.000000000000001 -4.999999999999999 
endloop 
endfacet 
facet normal 0.7933532581848586 -7.455178665209004e-17 -0.608761536011819 
outer loop 
vertex 7.071067810058594 4.999999999999999 -7.071067810058595 
vertex 8.66025447845459 4.999999999999999 -5.000000000000001 
vertex 8.66025447845459 -5.000000000000001 -4.999999999999999 
endloop 
endfacet 
facet normal 0.9238796369852439 -4.686517316491016e-17 -0.3826831801425482 
outer loop 
vertex 8.66025447845459 -5.000000000000001 -4.999999999999999 
vertex 8.66025447845459 4.999999999999999 -5.000000000000001 
vertex 9.659257888793945 -5 -2.5881905555725093 
endloop 
endfacet 
facet normal 0.9238796369852439 -4.686517316491016e-17 -0.3826831801425482 
outer loop 
vertex 8.66025447845459 4.999999999999999 -5.000000000000001 
vertex 9.659257888793945 5 -2.58819055557251 
vertex 9.659257888793945 -5 -2.5881905555725093 
endloop 
endfacet 
facet normal 0.9914448435112958 -1.598486496662725e-17 -0.13052632789924848 
outer loop 
vertex 9.659257888793945 -5 -2.5881905555725093 
vertex 9.659257888793945 5 -2.58819055557251 
vertex 10 -5 -2.491276972875189e-25 
endloop 
endfacet 
facet normal 0.9914448435112958 -1.598486496662725e-17 -0.13052632789924848 
outer loop 
vertex 9.659257888793945 5 -2.58819055557251 
vertex 10 5 -1.2246467993964809e-15 
vertex 10 -5 -2.491276972875189e-25 
endloop 
endfacet 
facet normal 0.9914448435112959 1.5984864966627248e-17 0.13052632789924845 
outer loop 
vertex 10 -5 -2.491276972875189e-25 
vertex 10 5 -1.2246467993964809e-15 
vertex 9.659257888793945 -5 2.58819055557251 
endloop 
endfacet 
facet normal 0.9914448435112959 1.5984864966627248e-17 0.13052632789924845 
outer loop 
vertex 10 5 -1.2246467993964809e-15 
vertex 9.659257888793945 5 2.5881905555725093 
vertex 9.659257888793945 -5 2.58819055557251 
endloop 
endfacet 
facet normal 0.9238796369852439 4.686517316491016e-17 0.3826831801425482 
outer loop 
vertex 9.659257888793945 -5 2.58819055557251 
vertex 9.659257888793945 5 2.5881905555725093 
vertex 8.66025447845459 -4.999999999999999 5.000000000000001 
endloop 
endfacet 
facet normal 0.9238796369852439 4.686517316491016e-17 0.3826831801425482 
outer loop 
vertex 9.659257888793945 5 2.5881905555725093 
vertex 8.66025447845459 5.000000000000001 4.999999999999999 
vertex 8.66025447845459 -4.999999999999999 5.000000000000001 
endloop 
endfacet 
facet normal 0.7933532581848586 7.455178665209004e-17 0.608761536011819 
outer loop 
vertex 8.66025447845459 -4.999999999999999 5.000000000000001 
vertex 8.66025447845459 5.000000000000001 4.999999999999999 
vertex 7.071067810058594 -4.999999999999999 7.071067810058595 
endloop 
endfacet 
facet normal 0.7933532581848586 7.455178665209004e-17 0.608761536011819 
outer loop 
vertex 8.66025447845459 5.000000000000001 4.999999999999999 
vertex 7.071067810058594 5.000000000000001 7.071067810058593 
vertex 7.071067810058594 -4.999999999999999 7.071067810058595 
endloop 
endfacet 
facet normal 0.608761536011819 9.715775282292107e-17 0.7933532581848586 
outer loop 
vertex 7.071067810058594 -4.999999999999999 7.071067810058595 
vertex 7.071067810058594 5.000000000000001 7.071067810058593 
vertex 5 -4.999999999999999 8.66025447845459 
endloop 
endfacet 
facet normal 0.608761536011819 9.715775282292107e-17 0.7933532581848586 
outer loop 
vertex 7.071067810058594 5.000000000000001 7.071067810058593 
vertex 5 5.000000000000001 8.66025447845459 
vertex 5 -4.999999999999999 8.66025447845459 
endloop 
endfacet 
facet normal 0.3826831801425482 1.1314262402313976e-16 0.9238796369852439 
outer loop 
vertex 5 -4.999999999999999 8.66025447845459 
vertex 5 5.000000000000001 8.66025447845459 
vertex 2.5881905555725098 -4.999999999999999 9.659257888793945 
endloop 
endfacet 
facet normal 0.3826831801425482 1.1314262402313976e-16 0.9238796369852439 
outer loop 
vertex 5 5.000000000000001 8.66025447845459 
vertex 2.5881905555725098 5.000000000000001 9.659257888793945 
vertex 2.5881905555725098 -4.999999999999999 9.659257888793945 
endloop 
endfacet 
facet normal 0.13052632789924853 1.2141697541372568e-16 0.9914448435112958 
outer loop 
vertex 2.5881905555725098 -4.999999999999999 9.659257888793945 
vertex 2.5881905555725098 5.000000000000001 9.659257888793945 
vertex 1.2246467996456087e-15 -4.999999999999999 10 
endloop 
endfacet 
facet normal 0.13052632789924853 1.2141697541372568e-16 0.9914448435112958 
outer loop 
vertex 2.5881905555725098 5.000000000000001 9.659257888793945 
vertex 1.2246467996456087e-15 5.000000000000001 10 
vertex 1.2246467996456087e-15 -4.999999999999999 10 
endloop 
endfacet 
facet normal -0.1305263278992484 1.2141697541372568e-16 0.9914448435112958 
outer loop 
vertex 1.2246467996456087e-15 -4.999999999999999 10 
vertex 1.2246467996456087e-15 5.000000000000001 10 
vertex -2.5881905555725098 -4.999999999999999 9.659257888793945 
endloop 
endfacet 
facet normal -0.1305263278992484 1.2141697541372568e-16 0.9914448435112958 
outer loop 
vertex 1.2246467996456087e-15 5.000000000000001 10 
vertex -2.5881905555725098 5.000000000000001 9.659257888793945 
vertex -2.5881905555725098 -4.999999999999999 9.659257888793945 
endloop 
endfacet 
facet normal -0.3826831801425482 1.1314262402313976e-16 0.9238796369852439 
outer loop 
vertex -2.5881905555725098 -4.999999999999999 9.659257888793945 
vertex -2.5881905555725098 5.000000000000001 9.659257888793945 
vertex -5 -4.999999999999999 8.66025447845459 
endloop 
endfacet 
facet normal -0.3826831801425482 1.1314262402313976e-16 0.9238796369852439 
outer loop 
vertex -2.5881905555725098 5.000000000000001 9.659257888793945 
vertex -5 5.000000000000001 8.66025447845459 
vertex -5 -4.999999999999999 8.66025447845459 
endloop 
endfacet 
facet normal -0.608761536011819 9.715775282292107e-17 0.7933532581848586 
outer loop 
vertex -5 -4.999999999999999 8.66025447845459 
vertex -5 5.000000000000001 8.66025447845459 
vertex -7.071067810058594 -4.999999999999999 7.071067810058595 
endloop 
endfacet 
facet normal -0.608761536011819 9.715775282292107e-17 0.7933532581848586 
outer loop 
vertex -5 5.000000000000001 8.66025447845459 
vertex -7.071067810058594 5.000000000000001 7.071067810058593 
vertex -7.071067810058594 -4.999999999999999 7.071067810058595 
endloop 
endfacet 
facet normal -0.7933532581848586 7.455178665209004e-17 0.608761536011819 
outer loop 
vertex -7.071067810058594 -4.999999999999999 7.071067810058595 
vertex -7.071067810058594 5.000000000000001 7.071067810058593 
vertex -8.66025447845459 -4.999999999999999 5.000000000000001 
endloop 
endfacet 
facet normal -0.7933532581848586 7.455178665209004e-17 0.608761536011819 
outer loop 
vertex -7.071067810058594 5.000000000000001 7.071067810058593 
vertex -8.66025447845459 5.000000000000001 4.999999999999999 
vertex -8.66025447845459 -4.999999999999999 5.000000000000001 
endloop 
endfacet 
facet normal -0.9238796369852439 4.686517316491016e-17 0.3826831801425482 
outer loop 
vertex -8.66025447845459 -4.999999999999999 5.000000000000001 
vertex -8.66025447845459 5.000000000000001 4.999999999999999 
vertex -9.659257888793945 -5 2.58819055557251 
endloop 
endfacet 
facet normal -0.9238796369852439 4.686517316491016e-17 0.3826831801425482 
outer loop 
vertex -8.66025447845459 5.000000000000001 4.999999999999999 
vertex -9.659257888793945 5 2.5881905555725093 
vertex -9.659257888793945 -5 2.58819055557251 
endloop 
endfacet 
facet normal -0.9914448435112958 1.5984864966627263e-17 0.13052632789924856 
outer loop 
vertex -9.659257888793945 -5 2.58819055557251 
vertex -9.659257888793945 5 2.5881905555725093 
vertex -10 -5 2.449293493162971e-15 
endloop 
endfacet 
facet normal -0.9914448435112958 1.5984864966627263e-17 0.13052632789924856 
outer loop 
vertex -9.659257888793945 5 2.5881905555725093 
vertex -10 5 1.224646694015618e-15 
vertex -10 -5 2.449293493162971e-15 
endloop 
endfacet 
facet normal -0.9914448435112959 -1.598486496662724e-17 -0.1305263278992484 
outer loop 
vertex -10 -5 2.449293493162971e-15 
vertex -10 5 1.224646694015618e-15 
vertex -9.659257888793945 -5 -2.5881905555725093 
endloop 
endfacet 
facet normal -0.9914448435112959 -1.598486496662724e-17 -0.1305263278992484 
outer loop 
vertex -10 5 1.224646694015618e-15 
vertex -9.659257888793945 5 -2.58819055557251 
vertex -9.659257888793945 -5 -2.5881905555725093 
endloop 
endfacet 
facet normal -0.9238796369852439 -4.686517316491016e-17 -0.3826831801425482 
outer loop 
vertex -9.659257888793945 -5 -2.5881905555725093 
vertex -9.659257888793945 5 -2.58819055557251 
vertex -8.66025447845459 -5.000000000000001 -4.999999999999999 
endloop 
endfacet 
facet normal -0.9238796369852439 -4.686517316491016e-17 -0.3826831801425482 
outer loop 
vertex -9.659257888793945 5 -2.58819055557251 
vertex -8.66025447845459 4.999999999999999 -5.000000000000001 
vertex -8.66025447845459 -5.000000000000001 -4.999999999999999 
endloop 
endfacet 
facet normal -0.7933532581848586 -7.455178665209004e-17 -0.608761536011819 
outer loop 
vertex -8.66025447845459 -5.000000000000001 -4.999999999999999 
vertex -8.66025447845459 4.999999999999999 -5.000000000000001 
vertex -7.071067810058594 -5.000000000000001 -7.071067810058593 
endloop 
endfacet 
facet normal -0.7933532581848586 -7.455178665209004e-17 -0.608761536011819 
outer loop 
vertex -8.66025447845459 4.999999999999999 -5.000000000000001 
vertex -7.071067810058594 4.999999999999999 -7.071067810058595 
vertex -7.071067810058594 -5.000000000000001 -7.071067810058593 
endloop 
endfacet 
facet normal -0.608761536011819 -9.715775282292107e-17 -0.7933532581848586 
outer loop 
vertex -7.071067810058594 -5.000000000000001 -7.071067810058593 
vertex -7.071067810058594 4.999999999999999 -7.071067810058595 
vertex -5 -5.000000000000001 -8.66025447845459 
endloop 
endfacet 
facet normal -0.608761536011819 -9.715775282292107e-17 -0.7933532581848586 
outer loop 
vertex -7.071067810058594 4.999999999999999 -7.071067810058595 
vertex -5 4.999999999999999 -8.66025447845459 
vertex -5 -5.000000000000001 -8.66025447845459 
endloop 
endfacet 
facet normal -0.3826831801425482 -1.1314262402313976e-16 -0.9238796369852439 
outer loop 
vertex -5 -5.000000000000001 -8.66025447845459 
vertex -5 4.999999999999999 -8.66025447845459 
vertex -2.5881905555725098 -5.000000000000001 -9.659257888793945 
endloop 
endfacet 
facet normal -0.3826831801425482 -1.1314262402313976e-16 -0.9238796369852439 
outer loop 
vertex -5 4.999999999999999 -8.66025447845459 
vertex -2.5881905555725098 4.999999999999999 -9.659257888793945 
vertex -2.5881905555725098 -5.000000000000001 -9.659257888793945 
endloop 
endfacet 
facet normal -0.1305263278992486 -1.2141697541372568e-16 -0.9914448435112958 
outer loop 
vertex -2.5881905555725098 -5.000000000000001 -9.659257888793945 
vertex -2.5881905555725098 4.999999999999999 -9.659257888793945 
vertex 0 -5.000000000000001 -10 
endloop 
endfacet 
facet normal -0.1305263278992486 -1.2141697541372568e-16 -0.9914448435112958 
outer loop 
vertex -2.5881905555725098 4.999999999999999 -9.659257888793945 
vertex 0 4.999999999999999 -10 
vertex 0 -5.000000000000001 -10 
endloop 
endfacet 
facet normal 0 -1 1.2246467991473532e-16 
outer loop 
vertex 0 -5.000000000000001 -10 
vertex 2.5881905555725098 -5.000000000000001 -9.659257888793945 
vertex 0 -5 6.123233995736766e-16 
endloop 
endfacet 
facet normal 0 -1 1.2246467991473532e-16 
outer loop 
vertex 2.5881905555725098 -5.000000000000001 -9.659257888793945 
vertex 5 -5.000000000000001 -8.66025447845459 
vertex 0 -5 6.123233995736766e-16 
endloop 
endfacet 
facet normal 0 -1 1.2246467991473532e-16 
outer loop 
vertex 5 -5.000000000000001 -8.66025447845459 
vertex 7.071067810058594 -5.000000000000001 -7.071067810058593 
vertex 0 -5 6.123233995736766e-16 
endloop 
endfacet 
facet normal 0 -1 1.2246467991473532e-16 
outer loop 
vertex 7.071067810058594 -5.000000000000001 -7.071067810058593 
vertex 8.66025447845459 -5.000000000000001 -4.999999999999999 
vertex 0 -5 6.123233995736766e-16 
endloop 
endfacet 
facet normal 0 -1 1.2246467991473532e-16 
outer loop 
vertex 8.66025447845459 -5.000000000000001 -4.999999999999999 
vertex 9.659257888793945 -5 -2.5881905555725093 
vertex 0 -5 6.123233995736766e-16 
endloop 
endfacet 
facet normal 0 -1 1.2246467991473532e-16 
outer loop 
vertex 9.659257888793945 -5 -2.5881905555725093 
vertex 10 -5 -2.491276972875189e-25 
vertex 0 -5 6.123233995736766e-16 
endloop 
endfacet 
facet normal 0 -1 1.2246467991473532e-16 
outer loop 
vertex 10 -5 -2.491276972875189e-25 
vertex 9.659257888793945 -5 2.58819055557251 
vertex 0 -5 6.123233995736766e-16 
endloop 
endfacet 
facet normal 0 -1 1.2246467991473532e-16 
outer loop 
vertex 9.659257888793945 -5 2.58819055557251 
vertex 8.66025447845459 -4.999999999999999 5.000000000000001 
vertex 0 -5 6.123233995736766e-16 
endloop 
endfacet 
facet normal 0 -1 1.2246467991473532e-16 
outer loop 
vertex 8.66025447845459 -4.999999999999999 5.000000000000001 
vertex 7.071067810058594 -4.999999999999999 7.071067810058595 
vertex 0 -5 6.123233995736766e-16 
endloop 
endfacet 
facet normal 0 -1 1.2246467991473532e-16 
outer loop 
vertex 7.071067810058594 -4.999999999999999 7.071067810058595 
vertex 5 -4.999999999999999 8.66025447845459 
vertex 0 -5 6.123233995736766e-16 
endloop 
endfacet 
facet normal 0 -1 1.2246467991473532e-16 
outer loop 
vertex 5 -4.999999999999999 8.66025447845459 
vertex 2.5881905555725098 -4.999999999999999 9.659257888793945 
vertex 0 -5 6.123233995736766e-16 
endloop 
endfacet 
facet normal 0 -1 1.2246467991473532e-16 
outer loop 
vertex 2.5881905555725098 -4.999999999999999 9.659257888793945 
vertex 1.2246467996456087e-15 -4.999999999999999 10 
vertex 0 -5 6.123233995736766e-16 
endloop 
endfacet 
facet normal 0 -1 1.2246467991473532e-16 
outer loop 
vertex 1.2246467996456087e-15 -4.999999999999999 10 
vertex -2.5881905555725098 -4.999999999999999 9.659257888793945 
vertex 0 -5 6.123233995736766e-16 
endloop 
endfacet 
facet normal 0 -1 1.2246467991473532e-16 
outer loop 
vertex -2.5881905555725098 -4.999999999999999 9.659257888793945 
vertex -5 -4.999999999999999 8.66025447845459 
vertex 0 -5 6.123233995736766e-16 
endloop 
endfacet 
facet normal 0 -1 1.2246467991473532e-16 
outer loop 
vertex -5 -4.999999999999999 8.66025447845459 
vertex -7.071067810058594 -4.999999999999999 7.071067810058595 
vertex 0 -5 6.123233995736766e-16 
endloop 
endfacet 
facet normal 0 -1 1.2246467991473532e-16 
outer loop 
vertex -7.071067810058594 -4.999999999999999 7.071067810058595 
vertex -8.66025447845459 -4.999999999999999 5.000000000000001 
vertex 0 -5 6.123233995736766e-16 
endloop 
endfacet 
facet normal 0 -1 1.2246467991473532e-16 
outer loop 
vertex -8.66025447845459 -4.999999999999999 5.000000000000001 
vertex -9.659257888793945 -5 2.58819055557251 
vertex 0 -5 6.123233995736766e-16 
endloop 
endfacet 
facet normal 0 -1 1.2246467991473532e-16 
outer loop 
vertex -9.659257888793945 -5 2.58819055557251 
vertex -10 -5 2.449293493162971e-15 
vertex 0 -5 6.123233995736766e-16 
endloop 
endfacet 
facet normal 0 -1 1.2246467991473532e-16 
outer loop 
vertex -10 -5 2.449293493162971e-15 
vertex -9.659257888793945 -5 -2.5881905555725093 
vertex 0 -5 6.123233995736766e-16 
endloop 
endfacet 
facet normal 0 -1 1.2246467991473532e-16 
outer loop 
vertex -9.659257888793945 -5 -2.5881905555725093 
vertex -8.66025447845459 -5.000000000000001 -4.999999999999999 
vertex 0 -5 6.123233995736766e-16 
endloop 
endfacet 
facet normal 0 -1 1.2246467991473532e-16 
outer loop 
vertex -8.66025447845459 -5.000000000000001 -4.999999999999999 
vertex -7.071067810058594 -5.000000000000001 -7.071067810058593 
vertex 0 -5 6.123233995736766e-16 
endloop 
endfacet 
facet normal 0 -1 1.2246467991473532e-16 
outer loop 
vertex -7.071067810058594 -5.000000000000001 -7.071067810058593 
vertex -5 -5.000000000000001 -8.66025447845459 
vertex 0 -5 6.123233995736766e-16 
endloop 
endfacet 
facet normal 0 -1 1.2246467991473532e-16 
outer loop 
vertex -5 -5.000000000000001 -8.66025447845459 
vertex -2.5881905555725098 -5.000000000000001 -9.659257888793945 
vertex 0 -5 6.123233995736766e-16 
endloop 
endfacet 
facet normal 0 -1 1.2246467991473532e-16 
outer loop 
vertex -2.5881905555725098 -5.000000000000001 -9.659257888793945 
vertex 0 -5.000000000000001 -10 
vertex 0 -5 6.123233995736766e-16 
endloop 
endfacet 
facet normal 0 1 -1.2246467991473532e-16 
outer loop 
vertex 2.5881905555725098 4.999999999999999 -9.659257888793945 
vertex 0 4.999999999999999 -10 
vertex 0 5 -6.123233995736766e-16 
endloop 
endfacet 
facet normal 0 1 -1.2246467991473532e-16 
outer loop 
vertex 5 4.999999999999999 -8.66025447845459 
vertex 2.5881905555725098 4.999999999999999 -9.659257888793945 
vertex 0 5 -6.123233995736766e-16 
endloop 
endfacet 
facet normal 0 1 -1.2246467991473532e-16 
outer loop 
vertex 7.071067810058594 4.999999999999999 -7.071067810058595 
vertex 5 4.999999999999999 -8.66025447845459 
vertex 0 5 -6.123233995736766e-16 
endloop 
endfacet 
facet normal 0 1 -1.2246467991473532e-16 
outer loop 
vertex 8.66025447845459 4.999999999999999 -5.000000000000001 
vertex 7.071067810058594 4.999999999999999 -7.071067810058595 
vertex 0 5 -6.123233995736766e-16 
endloop 
endfacet 
facet normal 0 1 -1.2246467991473532e-16 
outer loop 
vertex 9.659257888793945 5 -2.58819055557251 
vertex 8.66025447845459 4.999999999999999 -5.000000000000001 
vertex 0 5 -6.123233995736766e-16 
endloop 
endfacet 
facet normal 0 1 -1.2246467991473532e-16 
outer loop 
vertex 10 5 -1.2246467993964809e-15 
vertex 9.659257888793945 5 -2.58819055557251 
vertex 0 5 -6.123233995736766e-16 
endloop 
endfacet 
facet normal 0 1 -1.2246467991473532e-16 
outer loop 
vertex 9.659257888793945 5 2.5881905555725093 
vertex 10 5 -1.2246467993964809e-15 
vertex 0 5 -6.123233995736766e-16 
endloop 
endfacet 
facet normal 0 1 -1.2246467991473532e-16 
outer loop 
vertex 8.66025447845459 5.000000000000001 4.999999999999999 
vertex 9.659257888793945 5 2.5881905555725093 
vertex 0 5 -6.123233995736766e-16 
endloop 
endfacet 
facet normal 0 1 -1.2246467991473532e-16 
outer loop 
vertex 7.071067810058594 5.000000000000001 7.071067810058593 
vertex 8.66025447845459 5.000000000000001 4.999999999999999 
vertex 0 5 -6.123233995736766e-16 
endloop 
endfacet 
facet normal 0 1 -1.2246467991473532e-16 
outer loop 
vertex 5 5.000000000000001 8.66025447845459 
vertex 7.071067810058594 5.000000000000001 7.071067810058593 
vertex 0 5 -6.123233995736766e-16 
endloop 
endfacet 
facet normal 0 1 -1.2246467991473532e-16 
outer loop 
vertex 2.5881905555725098 5.000000000000001 9.659257888793945 
vertex 5 5.000000000000001 8.66025447845459 
vertex 0 5 -6.123233995736766e-16 
endloop 
endfacet 
facet normal 0 1 -1.2246467991473532e-16 
outer loop 
vertex 1.2246467996456087e-15 5.000000000000001 10 
vertex 2.5881905555725098 5.000000000000001 9.659257888793945 
vertex 0 5 -6.123233995736766e-16 
endloop 
endfacet 
facet normal 0 1 -1.2246467991473532e-16 
outer loop 
vertex -2.5881905555725098 5.000000000000001 9.659257888793945 
vertex 1.2246467996456087e-15 5.000000000000001 10 
vertex 0 5 -6.123233995736766e-16 
endloop 
endfacet 
facet normal 0 1 -1.2246467991473532e-16 
outer loop 
vertex -5 5.000000000000001 8.66025447845459 
vertex -2.5881905555725098 5.000000000000001 9.659257888793945 
vertex 0 5 -6.123233995736766e-16 
endloop 
endfacet 
facet normal 0 1 -1.2246467991473532e-16 
outer loop 
vertex -7.071067810058594 5.000000000000001 7.071067810058593 
vertex -5 5.000000000000001 8.66025447845459 
vertex 0 5 -6.123233995736766e-16 
endloop 
endfacet 
facet normal 0 1 -1.2246467991473532e-16 
outer loop 
vertex -8.66025447845459 5.000000000000001 4.999999999999999 
vertex -7.071067810058594 5.000000000000001 7.071067810058593 
vertex 0 5 -6.123233995736766e-16 
endloop 
endfacet 
facet normal 0 1 -1.2246467991473532e-16 
outer loop 
vertex -9.659257888793945 5 2.5881905555725093 
vertex -8.66025447845459 5.000000000000001 4.999999999999999 
vertex 0 5 -6.123233995736766e-16 
endloop 
endfacet 
facet normal 0 1 -1.2246467991473532e-16 
outer loop 
vertex -10 5 1.224646694015618e-15 
vertex -9.659257888793945 5 2.5881905555725093 
vertex 0 5 -6.123233995736766e-16 
endloop 
endfacet 
facet normal 0 1 -1.2246467991473532e-16 
outer loop 
vertex -9.659257888793945 5 -2.58819055557251 
vertex -10 5 1.224646694015618e-15 
vertex 0 5 -6.123233995736766e-16 
endloop 
endfacet 
facet normal 0 1 -1.2246467991473532e-16 
outer loop 
vertex -8.66025447845459 4.999999999999999 -5.000000000000001 
vertex -9.659257888793945 5 -2.58819055557251 
vertex 0 5 -6.123233995736766e-16 
endloop 
endfacet 
facet normal 0 1 -1.2246467991473532e-16 
outer loop 
vertex -7.071067810058594 4.999999999999999 -7.071067810058595 
vertex -8.66025447845459 4.999999999999999 -5.000000000000001 
vertex 0 5 -6.123233995736766e-16 
endloop 
endfacet 
facet normal 0 1 -1.2246467991473532e-16 
outer loop 
vertex -5 4.999999999999999 -8.66025447845459 
vertex -7.071067810058594 4.999999999999999 -7.071067810058595 
vertex 0 5 -6.123233995736766e-16 
endloop 
endfacet 
facet normal 0 1 -1.2246467991473532e-16 
outer loop 
vertex -2.5881905555725098 4.999999999999999 -9.659257888793945 
vertex -5 4.999999999999999 -8.66025447845459 
vertex 0 5 -6.123233995736766e-16 
endloop 
endfacet 
facet normal 0 1 -1.2246467991473532e-16 
outer loop 
vertex 0 4.999999999999999 -10 
vertex -2.5881905555725098 4.999999999999999 -9.659257888793945 
vertex 0 5 -6.123233995736766e-16 
endloop 
endfacet 
endsolid